<mxfile host="app.diagrams.net" agent="Mozilla/5.0 (Macintosh; Intel Mac OS X 10_15_7) AppleWebKit/537.36 (KHTML, like Gecko) Chrome/132.0.0.0 Safari/537.36" version="26.0.11">
  <diagram id="kgpKYQtTHZ0yAKxKKP6v" name="Page-1">
    <mxGraphModel dx="1114" dy="691" grid="0" gridSize="10" guides="1" tooltips="1" connect="1" arrows="1" fold="1" page="1" pageScale="1" pageWidth="850" pageHeight="1100" math="0" shadow="0">
      <root>
        <mxCell id="0" />
        <mxCell id="1" parent="0" />
        <mxCell id="EQqcjjcAXX62Nr0-4pri-59" value="" style="rounded=0;whiteSpace=wrap;html=1;" parent="1" vertex="1">
          <mxGeometry x="30" y="560" width="670" height="230" as="geometry" />
        </mxCell>
        <mxCell id="EQqcjjcAXX62Nr0-4pri-95" value="&lt;div&gt;&lt;br&gt;&lt;/div&gt;" style="rounded=1;whiteSpace=wrap;html=1;" parent="1" vertex="1">
          <mxGeometry x="80" y="610" width="600" height="160" as="geometry" />
        </mxCell>
        <mxCell id="EQqcjjcAXX62Nr0-4pri-61" value="&lt;b&gt;Acceso a Datos&lt;/b&gt;" style="text;html=1;align=center;verticalAlign=middle;whiteSpace=wrap;rounded=0;rotation=-90;" parent="1" vertex="1">
          <mxGeometry x="-20" y="677.5" width="130" height="25" as="geometry" />
        </mxCell>
        <mxCell id="EQqcjjcAXX62Nr0-4pri-63" value="" style="rounded=0;whiteSpace=wrap;html=1;" parent="1" vertex="1">
          <mxGeometry x="30" y="350" width="670" height="230" as="geometry" />
        </mxCell>
        <mxCell id="EQqcjjcAXX62Nr0-4pri-64" value="" style="rounded=0;whiteSpace=wrap;html=1;" parent="1" vertex="1">
          <mxGeometry x="30" y="160" width="670" height="190" as="geometry" />
        </mxCell>
        <mxCell id="EQqcjjcAXX62Nr0-4pri-66" value="" style="endArrow=none;html=1;rounded=0;exitX=0.055;exitY=1.009;exitDx=0;exitDy=0;exitPerimeter=0;entryX=0.054;entryY=-0.005;entryDx=0;entryDy=0;entryPerimeter=0;" parent="1" source="EQqcjjcAXX62Nr0-4pri-59" target="EQqcjjcAXX62Nr0-4pri-64" edge="1">
          <mxGeometry width="50" height="50" relative="1" as="geometry">
            <mxPoint x="260" y="720" as="sourcePoint" />
            <mxPoint x="310" y="670" as="targetPoint" />
          </mxGeometry>
        </mxCell>
        <mxCell id="EQqcjjcAXX62Nr0-4pri-67" value="&lt;b&gt;Lógica de Negocio&lt;/b&gt;" style="text;html=1;align=center;verticalAlign=middle;whiteSpace=wrap;rounded=0;rotation=-90;" parent="1" vertex="1">
          <mxGeometry x="-20" y="460" width="130" height="25" as="geometry" />
        </mxCell>
        <mxCell id="EQqcjjcAXX62Nr0-4pri-68" value="&lt;b&gt;Presentación&lt;/b&gt;" style="text;html=1;align=center;verticalAlign=middle;whiteSpace=wrap;rounded=0;rotation=-90;" parent="1" vertex="1">
          <mxGeometry x="-20" y="260" width="130" height="25" as="geometry" />
        </mxCell>
        <mxCell id="EQqcjjcAXX62Nr0-4pri-69" value="Frontend&amp;nbsp;&lt;div&gt;&lt;br&gt;&lt;/div&gt;&lt;div&gt;Interfaz de Usuario&lt;/div&gt;" style="rounded=1;whiteSpace=wrap;html=1;" parent="1" vertex="1">
          <mxGeometry x="100" y="180" width="120" height="140" as="geometry" />
        </mxCell>
        <mxCell id="EQqcjjcAXX62Nr0-4pri-70" value="Permite el acceso a los listados" style="rounded=1;whiteSpace=wrap;html=1;" parent="1" vertex="1">
          <mxGeometry x="260" y="180" width="410" height="30" as="geometry" />
        </mxCell>
        <mxCell id="EQqcjjcAXX62Nr0-4pri-71" value="Facilita el login y registro de usuarios" style="rounded=1;whiteSpace=wrap;html=1;" parent="1" vertex="1">
          <mxGeometry x="260" y="235" width="410" height="30" as="geometry" />
        </mxCell>
        <mxCell id="EQqcjjcAXX62Nr0-4pri-72" value="Proporciona opciones para manejar la información" style="rounded=1;whiteSpace=wrap;html=1;" parent="1" vertex="1">
          <mxGeometry x="260" y="290" width="410" height="30" as="geometry" />
        </mxCell>
        <mxCell id="EQqcjjcAXX62Nr0-4pri-73" value="&lt;div&gt;&lt;br&gt;&lt;/div&gt;" style="rounded=1;whiteSpace=wrap;html=1;" parent="1" vertex="1">
          <mxGeometry x="80" y="380" width="610" height="170" as="geometry" />
        </mxCell>
        <mxCell id="EQqcjjcAXX62Nr0-4pri-74" value="Gestión" style="text;strokeColor=none;fillColor=none;align=center;verticalAlign=middle;spacingLeft=4;spacingRight=4;overflow=hidden;points=[[0,0.5],[1,0.5]];portConstraint=eastwest;rotatable=0;whiteSpace=wrap;html=1;" parent="1" vertex="1">
          <mxGeometry x="360" y="380" width="70" height="30" as="geometry" />
        </mxCell>
        <mxCell id="EQqcjjcAXX62Nr0-4pri-75" value="Usuarios" style="rounded=1;whiteSpace=wrap;html=1;" parent="1" vertex="1">
          <mxGeometry x="100" y="420" width="80" height="30" as="geometry" />
        </mxCell>
        <mxCell id="EQqcjjcAXX62Nr0-4pri-76" value="Empleados" style="rounded=1;whiteSpace=wrap;html=1;" parent="1" vertex="1">
          <mxGeometry x="200" y="420" width="80" height="30" as="geometry" />
        </mxCell>
        <mxCell id="EQqcjjcAXX62Nr0-4pri-77" value="Reservas" style="rounded=1;whiteSpace=wrap;html=1;" parent="1" vertex="1">
          <mxGeometry x="300" y="420" width="80" height="30" as="geometry" />
        </mxCell>
        <mxCell id="EQqcjjcAXX62Nr0-4pri-78" value="Clientes" style="rounded=1;whiteSpace=wrap;html=1;" parent="1" vertex="1">
          <mxGeometry x="400" y="420" width="80" height="30" as="geometry" />
        </mxCell>
        <mxCell id="EQqcjjcAXX62Nr0-4pri-79" value="Listados" style="rounded=1;whiteSpace=wrap;html=1;" parent="1" vertex="1">
          <mxGeometry x="500" y="420" width="80" height="30" as="geometry" />
        </mxCell>
        <mxCell id="EQqcjjcAXX62Nr0-4pri-80" value="Control de registro, login, roles" style="rounded=1;whiteSpace=wrap;html=1;" parent="1" vertex="1">
          <mxGeometry x="100" y="470" width="80" height="60" as="geometry" />
        </mxCell>
        <mxCell id="EQqcjjcAXX62Nr0-4pri-81" value="Consulta y gestión de Empleados" style="rounded=1;whiteSpace=wrap;html=1;" parent="1" vertex="1">
          <mxGeometry x="200" y="470" width="80" height="60" as="geometry" />
        </mxCell>
        <mxCell id="EQqcjjcAXX62Nr0-4pri-82" value="Consulta y gestión de Reservas" style="rounded=1;whiteSpace=wrap;html=1;" parent="1" vertex="1">
          <mxGeometry x="300" y="470" width="80" height="60" as="geometry" />
        </mxCell>
        <mxCell id="EQqcjjcAXX62Nr0-4pri-83" value="Gestión información de clientes" style="rounded=1;whiteSpace=wrap;html=1;" parent="1" vertex="1">
          <mxGeometry x="400" y="470" width="80" height="60" as="geometry" />
        </mxCell>
        <mxCell id="EQqcjjcAXX62Nr0-4pri-84" value="Gestión de reportes" style="rounded=1;whiteSpace=wrap;html=1;" parent="1" vertex="1">
          <mxGeometry x="500" y="470" width="80" height="60" as="geometry" />
        </mxCell>
        <mxCell id="EQqcjjcAXX62Nr0-4pri-85" value="Notificaciones" style="rounded=1;whiteSpace=wrap;html=1;" parent="1" vertex="1">
          <mxGeometry x="590" y="420" width="80" height="30" as="geometry" />
        </mxCell>
        <mxCell id="EQqcjjcAXX62Nr0-4pri-86" value="Envío automático de notificaciones" style="rounded=1;whiteSpace=wrap;html=1;" parent="1" vertex="1">
          <mxGeometry x="590" y="470" width="80" height="60" as="geometry" />
        </mxCell>
        <mxCell id="EQqcjjcAXX62Nr0-4pri-87" value="Conexión con las bases de datos" style="rounded=1;whiteSpace=wrap;html=1;" parent="1" vertex="1">
          <mxGeometry x="105" y="630" width="100" height="120" as="geometry" />
        </mxCell>
        <mxCell id="EQqcjjcAXX62Nr0-4pri-88" value="Api Getaway" style="rounded=1;whiteSpace=wrap;html=1;" parent="1" vertex="1">
          <mxGeometry x="100" y="340" width="110" height="20" as="geometry" />
        </mxCell>
        <mxCell id="EQqcjjcAXX62Nr0-4pri-89" value="" style="endArrow=classic;html=1;rounded=0;exitX=0.5;exitY=0;exitDx=0;exitDy=0;" parent="1" source="EQqcjjcAXX62Nr0-4pri-88" edge="1">
          <mxGeometry width="50" height="50" relative="1" as="geometry">
            <mxPoint x="350" y="430" as="sourcePoint" />
            <mxPoint x="155" y="320" as="targetPoint" />
          </mxGeometry>
        </mxCell>
        <mxCell id="EQqcjjcAXX62Nr0-4pri-90" value="" style="endArrow=classic;html=1;rounded=0;exitX=0.5;exitY=1;exitDx=0;exitDy=0;entryX=0.123;entryY=-0.001;entryDx=0;entryDy=0;entryPerimeter=0;" parent="1" source="EQqcjjcAXX62Nr0-4pri-88" target="EQqcjjcAXX62Nr0-4pri-73" edge="1">
          <mxGeometry width="50" height="50" relative="1" as="geometry">
            <mxPoint x="165" y="350" as="sourcePoint" />
            <mxPoint x="165" y="330" as="targetPoint" />
          </mxGeometry>
        </mxCell>
        <mxCell id="EQqcjjcAXX62Nr0-4pri-91" value="Librerías" style="rounded=1;whiteSpace=wrap;html=1;" parent="1" vertex="1">
          <mxGeometry x="255" y="630" width="100" height="120" as="geometry" />
        </mxCell>
        <mxCell id="EQqcjjcAXX62Nr0-4pri-92" value="Drivers" style="rounded=1;whiteSpace=wrap;html=1;" parent="1" vertex="1">
          <mxGeometry x="400" y="630" width="100" height="120" as="geometry" />
        </mxCell>
        <mxCell id="EQqcjjcAXX62Nr0-4pri-93" value="Requests" style="rounded=1;whiteSpace=wrap;html=1;" parent="1" vertex="1">
          <mxGeometry x="550" y="630" width="100" height="120" as="geometry" />
        </mxCell>
        <mxCell id="EQqcjjcAXX62Nr0-4pri-94" value="Capa de datos" style="rounded=1;whiteSpace=wrap;html=1;" parent="1" vertex="1">
          <mxGeometry x="100" y="570" width="110" height="20" as="geometry" />
        </mxCell>
        <mxCell id="EQqcjjcAXX62Nr0-4pri-96" value="" style="endArrow=classic;html=1;rounded=0;exitX=0.5;exitY=1;exitDx=0;exitDy=0;entryX=0.123;entryY=0.002;entryDx=0;entryDy=0;entryPerimeter=0;" parent="1" source="EQqcjjcAXX62Nr0-4pri-94" target="EQqcjjcAXX62Nr0-4pri-95" edge="1">
          <mxGeometry width="50" height="50" relative="1" as="geometry">
            <mxPoint x="165" y="370" as="sourcePoint" />
            <mxPoint x="165" y="390" as="targetPoint" />
          </mxGeometry>
        </mxCell>
        <mxCell id="EQqcjjcAXX62Nr0-4pri-97" value="" style="endArrow=classic;html=1;rounded=0;exitX=0.5;exitY=0;exitDx=0;exitDy=0;" parent="1" source="EQqcjjcAXX62Nr0-4pri-94" edge="1">
          <mxGeometry width="50" height="50" relative="1" as="geometry">
            <mxPoint x="165" y="350" as="sourcePoint" />
            <mxPoint x="155" y="550" as="targetPoint" />
          </mxGeometry>
        </mxCell>
        <mxCell id="EQqcjjcAXX62Nr0-4pri-99" value="" style="endArrow=classic;html=1;rounded=0;" parent="1" edge="1">
          <mxGeometry width="50" height="50" relative="1" as="geometry">
            <mxPoint x="225" y="194.69" as="sourcePoint" />
            <mxPoint x="255" y="194.69" as="targetPoint" />
          </mxGeometry>
        </mxCell>
        <mxCell id="EQqcjjcAXX62Nr0-4pri-100" value="" style="endArrow=classic;html=1;rounded=0;" parent="1" edge="1">
          <mxGeometry width="50" height="50" relative="1" as="geometry">
            <mxPoint x="225" y="249.69" as="sourcePoint" />
            <mxPoint x="255" y="249.69" as="targetPoint" />
          </mxGeometry>
        </mxCell>
        <mxCell id="EQqcjjcAXX62Nr0-4pri-101" value="" style="endArrow=classic;html=1;rounded=0;" parent="1" edge="1">
          <mxGeometry width="50" height="50" relative="1" as="geometry">
            <mxPoint x="225" y="304.69" as="sourcePoint" />
            <mxPoint x="255" y="304.69" as="targetPoint" />
          </mxGeometry>
        </mxCell>
        <mxCell id="EQqcjjcAXX62Nr0-4pri-102" value="" style="endArrow=classic;html=1;rounded=0;" parent="1" edge="1">
          <mxGeometry width="50" height="50" relative="1" as="geometry">
            <mxPoint x="539.62" y="450" as="sourcePoint" />
            <mxPoint x="539.62" y="470" as="targetPoint" />
          </mxGeometry>
        </mxCell>
        <mxCell id="EQqcjjcAXX62Nr0-4pri-103" value="" style="endArrow=classic;html=1;rounded=0;" parent="1" edge="1">
          <mxGeometry width="50" height="50" relative="1" as="geometry">
            <mxPoint x="439.62" y="450" as="sourcePoint" />
            <mxPoint x="439.62" y="470" as="targetPoint" />
          </mxGeometry>
        </mxCell>
        <mxCell id="EQqcjjcAXX62Nr0-4pri-104" value="" style="endArrow=classic;html=1;rounded=0;" parent="1" edge="1">
          <mxGeometry width="50" height="50" relative="1" as="geometry">
            <mxPoint x="339.62" y="450" as="sourcePoint" />
            <mxPoint x="339.62" y="470" as="targetPoint" />
          </mxGeometry>
        </mxCell>
        <mxCell id="EQqcjjcAXX62Nr0-4pri-105" value="" style="endArrow=classic;html=1;rounded=0;" parent="1" edge="1">
          <mxGeometry width="50" height="50" relative="1" as="geometry">
            <mxPoint x="239.62" y="450" as="sourcePoint" />
            <mxPoint x="239.62" y="470" as="targetPoint" />
          </mxGeometry>
        </mxCell>
        <mxCell id="EQqcjjcAXX62Nr0-4pri-106" value="" style="endArrow=classic;html=1;rounded=0;" parent="1" edge="1">
          <mxGeometry width="50" height="50" relative="1" as="geometry">
            <mxPoint x="629.62" y="450" as="sourcePoint" />
            <mxPoint x="629.62" y="470" as="targetPoint" />
          </mxGeometry>
        </mxCell>
        <mxCell id="EQqcjjcAXX62Nr0-4pri-107" value="" style="endArrow=classic;html=1;rounded=0;" parent="1" edge="1">
          <mxGeometry width="50" height="50" relative="1" as="geometry">
            <mxPoint x="139.55" y="450" as="sourcePoint" />
            <mxPoint x="139.55" y="470" as="targetPoint" />
          </mxGeometry>
        </mxCell>
        <mxCell id="EQqcjjcAXX62Nr0-4pri-108" value="" style="endArrow=classic;startArrow=classic;html=1;rounded=0;" parent="1" edge="1">
          <mxGeometry width="50" height="50" relative="1" as="geometry">
            <mxPoint x="510" y="689.62" as="sourcePoint" />
            <mxPoint x="540" y="689.62" as="targetPoint" />
            <Array as="points">
              <mxPoint x="530" y="689.62" />
            </Array>
          </mxGeometry>
        </mxCell>
        <mxCell id="EQqcjjcAXX62Nr0-4pri-109" value="" style="endArrow=classic;startArrow=classic;html=1;rounded=0;" parent="1" edge="1">
          <mxGeometry width="50" height="50" relative="1" as="geometry">
            <mxPoint x="360" y="689.62" as="sourcePoint" />
            <mxPoint x="390" y="689.62" as="targetPoint" />
          </mxGeometry>
        </mxCell>
        <mxCell id="EQqcjjcAXX62Nr0-4pri-110" value="" style="endArrow=classic;startArrow=classic;html=1;rounded=0;" parent="1" edge="1">
          <mxGeometry width="50" height="50" relative="1" as="geometry">
            <mxPoint x="210" y="689.62" as="sourcePoint" />
            <mxPoint x="250" y="689.62" as="targetPoint" />
          </mxGeometry>
        </mxCell>
        <mxCell id="EQqcjjcAXX62Nr0-4pri-112" value="Central de Reservas" style="rounded=1;whiteSpace=wrap;html=1;" parent="1" vertex="1">
          <mxGeometry x="720" y="415" width="100" height="40" as="geometry" />
        </mxCell>
        <mxCell id="EQqcjjcAXX62Nr0-4pri-113" value="Servidor de correo Electrónico" style="rounded=1;whiteSpace=wrap;html=1;" parent="1" vertex="1">
          <mxGeometry x="720" y="470" width="100" height="45" as="geometry" />
        </mxCell>
        <mxCell id="EQqcjjcAXX62Nr0-4pri-114" value="Sistema Hotelero" style="rounded=1;whiteSpace=wrap;html=1;" parent="1" vertex="1">
          <mxGeometry x="720" y="540" width="100" height="40" as="geometry" />
        </mxCell>
        <mxCell id="EQqcjjcAXX62Nr0-4pri-115" value="Base de Datos MySQL" style="rounded=1;whiteSpace=wrap;html=1;" parent="1" vertex="1">
          <mxGeometry x="720" y="665" width="100" height="50" as="geometry" />
        </mxCell>
        <mxCell id="EQqcjjcAXX62Nr0-4pri-116" value="Cliente" style="rounded=1;whiteSpace=wrap;html=1;" parent="1" vertex="1">
          <mxGeometry x="720" y="225" width="100" height="50" as="geometry" />
        </mxCell>
        <mxCell id="EQqcjjcAXX62Nr0-4pri-117" value="Servidor de Aplicaciones" style="rounded=1;whiteSpace=wrap;html=1;" parent="1" vertex="1">
          <mxGeometry x="720" y="360" width="100" height="40" as="geometry" />
        </mxCell>
        <mxCell id="EQqcjjcAXX62Nr0-4pri-119" value="" style="endArrow=classic;startArrow=classic;html=1;rounded=0;" parent="1" edge="1">
          <mxGeometry width="50" height="50" relative="1" as="geometry">
            <mxPoint x="680" y="249.68" as="sourcePoint" />
            <mxPoint x="720" y="249.68" as="targetPoint" />
          </mxGeometry>
        </mxCell>
        <mxCell id="EQqcjjcAXX62Nr0-4pri-120" value="" style="endArrow=none;startArrow=none;html=1;rounded=0;exitX=0.5;exitY=0;exitDx=0;exitDy=0;startFill=0;dashed=1;entryX=0;entryY=0.5;entryDx=0;entryDy=0;" parent="1" source="EQqcjjcAXX62Nr0-4pri-77" target="EQqcjjcAXX62Nr0-4pri-112" edge="1">
          <mxGeometry width="50" height="50" relative="1" as="geometry">
            <mxPoint x="320" y="410" as="sourcePoint" />
            <mxPoint x="710" y="435" as="targetPoint" />
            <Array as="points">
              <mxPoint x="340" y="410" />
              <mxPoint x="710" y="410" />
              <mxPoint x="710" y="435" />
            </Array>
          </mxGeometry>
        </mxCell>
        <mxCell id="EQqcjjcAXX62Nr0-4pri-128" value="" style="endArrow=none;dashed=1;html=1;rounded=0;exitX=0.984;exitY=0.235;exitDx=0;exitDy=0;exitPerimeter=0;entryX=-0.005;entryY=0.452;entryDx=0;entryDy=0;entryPerimeter=0;" parent="1" target="EQqcjjcAXX62Nr0-4pri-113" edge="1">
          <mxGeometry width="50" height="50" relative="1" as="geometry">
            <mxPoint x="670" y="434.9200000000001" as="sourcePoint" />
            <mxPoint x="705" y="435" as="targetPoint" />
            <Array as="points">
              <mxPoint x="680" y="435" />
              <mxPoint x="680" y="490" />
            </Array>
          </mxGeometry>
        </mxCell>
        <mxCell id="EQqcjjcAXX62Nr0-4pri-131" value="" style="endArrow=none;dashed=1;html=1;rounded=0;entryX=0;entryY=0.5;entryDx=0;entryDy=0;exitX=0;exitY=0.5;exitDx=0;exitDy=0;" parent="1" source="EQqcjjcAXX62Nr0-4pri-114" target="EQqcjjcAXX62Nr0-4pri-79" edge="1">
          <mxGeometry width="50" height="50" relative="1" as="geometry">
            <mxPoint x="420" y="380" as="sourcePoint" />
            <mxPoint x="470" y="330" as="targetPoint" />
            <Array as="points">
              <mxPoint x="490" y="560" />
              <mxPoint x="490" y="435" />
            </Array>
          </mxGeometry>
        </mxCell>
        <mxCell id="EQqcjjcAXX62Nr0-4pri-132" value="" style="endArrow=classic;startArrow=classic;html=1;rounded=0;" parent="1" edge="1">
          <mxGeometry width="50" height="50" relative="1" as="geometry">
            <mxPoint x="680" y="380" as="sourcePoint" />
            <mxPoint x="720" y="380" as="targetPoint" />
          </mxGeometry>
        </mxCell>
        <mxCell id="EQqcjjcAXX62Nr0-4pri-133" value="" style="endArrow=classic;startArrow=classic;html=1;rounded=0;" parent="1" edge="1">
          <mxGeometry width="50" height="50" relative="1" as="geometry">
            <mxPoint x="680" y="689.8199999999999" as="sourcePoint" />
            <mxPoint x="720" y="689.8199999999999" as="targetPoint" />
          </mxGeometry>
        </mxCell>
      </root>
    </mxGraphModel>
  </diagram>
</mxfile>
